<svg width="640" height="320" xmlns="http://www.w3.org/2000/svg" viewBox="0 0 1200 600"><clipPath id="a"><path d="M0 0v150h700v150H600zm600 0H300v350H0v-50z"/></clipPath><path fill="#012169" d="M0 0h1200v600H0z"/><path stroke="#fff" stroke-width="60" d="m0 0 600 300m0-300L0 300"/><path stroke="#c8102e" stroke-width="40" d="m0 0 600 300m0-300L0 300" clip-path="url(#a)"/><path stroke="#fff" stroke-width="100" d="M300 0v350M0 150h700"/><path stroke="#c8102e" stroke-width="60" d="M300 0v350M0 150h700"/><path fill="#012169" d="M0 300h600V0h600v600H0z"/><path fill="#fff" d="M769.47 147.53h256.88l-.31 182.78c2.14 73.48-43.66 119.08-127.93 139.64-59.84-14.86-128.84-45.6-128.94-137.55z"/><path fill="#00a2bd" stroke="#000" stroke-width="1.81" d="M775.15 153.04h245.5l-.3 175.15c2.04 70.41-41.72 114.1-122.26 133.8-57.19-14.23-123.13-43.69-123.23-131.8z"/><path fill="#a53d08" d="M1018.74 348.94c-8.93 67.2-60.7 96.57-120.65 112.16C845 446.86 787.9 424.13 776.84 349.28z"/><path d="m888.37 185.66-.35-22.07 17.46.17.17 21.9h47.74l.17 17.12-47.91.17-.38 201.81-17.03.11-.22-202.1-47.58.18.01-17.46z"/><g fill="#ff9a08" stroke="#000" stroke-width=".97"><path fill-rule="evenodd" d="m849.71 357.27 43.7 45.34c15.12-16.61 4.64-78.7-15.24-90.13-2.38 7.35-6.43 16.16-10.74 19-9.47 6.46-32.7 14-24.93 18.84 1.77-2.45 6.4-4.76 8.58.68 2.58 8.58-9.67 9.13-9.67 9.13s-7.76-.96-9.12-8.85 11.56-15.1 12.66-15.66c1.09-.41 17.97-4.9 20.83-19.88 3.54-14.7 7.22-12.52 7.9-12.8 22.05 2.18 36.48 41.66 37.3 69.44.82 27.77-11.3 46.15-13.48 47.38-2.18 1.22-52.55-59.77-52.55-59.77z"/><path d="m881.57 315.06.27 81.83m-5.17-80.33.27 74.34m-5.58-63.59.27 59.1M867 331.52l.28 48.88m-4.9-46.7v41.26m-5.04-37.99v32.68m-4.36-30.1v25.06"/><g fill="none" stroke="#ffdf00" stroke-linecap="round" stroke-width="1.81"><path stroke-width=".97" d="m849.03 362.44 45.07 51.6"/><path d="M896.28 329.9s20.42 44.66 1.5 81.42m-54.06-58.27s1.5-3.95 3.4-2.32m-6.94-9.12s-8.16 7.21-3.67 11.84"/></g></g><g stroke="#000" stroke-width=".4"><path fill="#008021" d="M905.78 228.04c3.02-2.6 4.6-4.18 6.47-3.89s4.42.15 6.3-.43 11.17-1.73 15-.43c1.3.14 3.02.86 5.69 3.1 2.67 2.23 6.56 6.12 5.26 16.94s-.87 15.44-1.44 21.48c-1 10.67-3.37 19.46-7.64 18.75 5.77 10.09 6.34 18.74 10.09 25.66s6.06 21.05 4.61 36.34c-1.43 15.28-5.47 49.6 6.64 72.67-2.02 1.44-6.92 0-11.25-4.62s-6.22-4.46-9.8-1.73c-10.96 8.36-21.22 18.44-36.34 8.36-3.46-2.3-4.55-5.07-2.02-12.1 6.35-17.6 9.43-41.73 8.43-53.07z"/><path fill="#ffe1cf" d="M916.17 217.23c.8 2.45 1.22 5.62-.07 8.5-1.3 2.89-1.59 6.35.57 10.53 3.46-4.9 8.37-3.9 11.25-6.77 2.88-2.89 3.46-5.63 5.63-6.2-2.17-1.88-5.49-3.9-4.76-9.38.72-5.48 8.36-9.94 1.44-18.3-4.47-5.4-10.96-3.9-13.77-1.81a10 10 0 0 0-2.88 3.32c-.44.93.1 3.07-.95 4.32a14 14 0 0 1-2.6 2.45c-.64.47-1.04 1.15-.35 1.95.28.32.78.38 1.34.58-.32.65-.7 1.3-1.05 1.76-.34.44-.2.86.21 1.22-.54 1.73.51 1.92-.21 3.22-.63 1.12-1.48 2.45.86 3.75.65.36 3.72 1.07 5.34.86zm-28.04 28.7c-4.04 1-10.53-.73-15.43-.15-2.17.25-3.9-.87-3.6-3.03.28-2.16.57-5.48.13-8.5-.67-4.72 1.6-11.25 4.76-18.46 3.17-7.21 4.76-11.25 4.76-14.64 0-2.23.22-4.76 2.24-6.05 1.49-.96 1.78-1.9 2.3-2.67 1.23-1.8 2.38-2.23 2.53-1.15.08.64-.15 1.22-.73 2.09 1.3-1.08 3.5-2.35 4-2.7.51-.37 3.07-2.17 3.21-.47 1.02-.5 1.7-.47 1.95.07.28.58.11.83-.4 1.26.73-.15 1.56 1.12.11 2.23.76-.25 1.51 1.01.19 2.17-1.38 1.19-2.96 2.02-3.47 2.95-.5.94-3.93 3.57-5.3 4.15s-1.44 1.37-1.44 3.39c0 22.2-2.66 20.4-2.66 25.73 0 1.45-.3 2.74 1.15 2.31 1.44-.43 3.53-1.08 5.7-1.08zm.86 47.86c6.52-3.26 13.99-4.47 17.88-5.48 3.89-1 10.1-4.03 13.12-5.62 3.03-1.59 5.48-3.75 7.2-4.33a8 8 0 0 0 4.77-3.89c5.62-10.96 8.65-19.75 8.65-27.4 0-5.04-1.3-10.66-6.2-6.63-4.61 3.8-9.63 11.11-10.96 16.44-2.02 8.08-3.75 9.8-4.18 11.4-.43 1.58-2.07 1.58-4.04 2.01-8.5 1.87-10.53 3.17-16.87 7.93a170 170 0 0 1-17.88 11.53c-4.61 2.6-5.47 2.89-6.49 4.98-1 2.09-1.94 3.68-2.8 4.61a3.6 3.6 0 0 0-.94 3.18c.14.93-.3 5.26-.36 6.7-.08 1.44.28 1.8.86 1.87s1.37-.21 1.66-1.94c-.29 1.73 2.09 1.15 2.24-.15-.08 1.88 2.45.8 2.59-.93 0 1.22 1.91.38 2.09-.22.43-1.44.79-3.03 1.37-4.18.84-1.67 1.74-3.84 3.39-5.05 1.87-1.37 1-2.88 4.9-4.83zm46.71 118.09c.44 1.59 1.23 3.39 1.52 4.47s-.22 1.42-.5 2.02c-1.52 3.17-3.14 8.23-3.4 10.96-.14 1.58-1.22 3.1-1.72 4.03-.56 1.04-.35 1.84.93 2.82.62.46 2.6-.15 2.81-1.16.72.72 2.02.44 2.6-.65.65.65 1.73.22 2.45-.86.65.43 1.59-.43 1.95-1.01 1 .5 2.1-.1 2.12-2.1 0-.39.26-1.07.55-1.54a4.5 4.5 0 0 0 .36-2.16c-.04-.8.47-2.38 1.15-3.5s1.87-3.1 1.37-4.98c-.47-1.74-1.22-1.58-1.88-4.1-1.58-1.66-3.74-3.97-5.98-4.11-2.23-.15-3.53 1.37-4.33 1.87zm-41.02 12.4c2.02 2.02 6.57 2.09 9.74-1.3-1.15-.5-3.68-1.66-4.83-2.6-1.59 1.6-3.4 3.4-4.9 3.9z"/><path fill="#870f00" d="M915.09 195.03c.79-5.12 4.42-5 6.7-4.47.94.21 3.25.43 5.4-.15 4.28-1.14 7.5.36 7.08 4.47 1.15.87 2.37 2.89 2.16 4.62-.22 1.73.14 2.45 1.73 2.66 1.58.22 4.97 2.17 2.73 4.9 2.17 1.3 3.83 4.62 2.67 6.85-1.15 2.24-4.61 2.6-6.05.58-1.58.72-4.19.87-5.77-.8-1.08 1.3-3.82 1.16-4.33 0a3.6 3.6 0 0 0-2.37-2.08c-1.16-.36-1.23-3.54.5-3.9-.22-.93-.14-2.01.29-2.52s.07-1.44-.94-2.23c-1.01-.8-1.87-3.83-.86-5.48-1.73.57-5.55-1.08-6.35-2.24-.8-1.15-1.87-1.22-2.6-.21z"/><g fill="none"><path d="M916.17 217.23c2.81-.36 3.75-2.09 5.84-1.95m-11.83-5.88q.28.24.69.44c.57.3 1.19.34 1.76.42m-1.61-3.84c.4.13.8.33 1.18.72m5.34-12.11c-1.66-1.59 2.8-4.83 7.5-.22.87.86 3.1.86 3.75.65m-4.76 2.02c2.16-.5 5.4-.5 6.34 1.94.94 2.45 2.81.87 4.33 3.75 1.51 2.89 3.89 6.13 6.2 3.9m-9.16 6.63a5 5 0 0 1-.5-4.04c-.87-1-.51-3.1 0-4.1m-5.7 2.15c.08.87 1.23 2.45 3.03 2.74m8.94 4.04c-1-1.3-.87-2.45-.65-4.04"/><path d="M926.98 200.15c-.07 1.3.72 3.02 2.1 3.6a4.5 4.5 0 0 0 4.6 2.45m.59-11.32c-1.58-1.23-3.73-2.74-6.57-3.11m-11.03 44.5c-2.45 3.3-4.04 7.92-2.88 14.41 1.15 6.49 3.03 16-1.73 20.33m23.36 12.55c-3.32-.72-8.08-.72-10.67 1.15s-6.93 2.02-9.8.58"/><path d="M928.43 283.34c-2.9.5-4.26 2.52-4.26 7.86s-1.15 13.12-.14 20.76m-.87-26.39c-1.87.5-3.82.58-3.46 5.63m-6.27.14c.07-3.1 1.15-5.98 3.17-5.48m17.6 6.06c.14-6.85-1.38-8.8-3.4-8.73 2.75.08 4.61.41 5.77 11.61.87 8.36 2.61 11.33 4.61 17.88 5.2 17.02 2.6 43.26 5.2 52.48m-16.15-71.22c5.47 15.86 8.36 33.45-.58 61.7 6.05 16.73 12.11 28.84 13.26 35.77m-29.99-59.99c1.01-3.6-2.6-4.03.58-16.72 1.37-5.5 1.59-8.8.72-10.53m0 7.5c-1.3 5.63 4.19 16.15 1.44 23.8m-6.77 1.43c0 4.9 1.15 11.25.86 16.15s1.71 7.18 4.04 11.83c8.36 16.72 14.05 28.65 13.26 44.4-.14 2.89.87 8.94-2.16 10.67m-15.79 4.26c.87.07 1.8-.36 2.89-2.96s4.54-18.17 3.1-28.84m1.73 12.12c.43 3.31.43 10.09-1.73 15.43m7.2-25.38c1.3 7.06 1.16 13.4.15 17.88m-3.03 0c.15 2.88 1.44 10.09-.72 10.67M930.23 379c5.33 8.36 9.51 28.98 13.98 33.3m-9.37-3.31c-.14-2.31-.29-5.48-1.59-6.92m-56.01-94.01c.07-1.59-.22-3.1 1.51-5.55m-4.1 6.48c.21-5.55.13-6.05 1.72-7.57m-3.96 7.72c.07-3.97-.44-5.34 1.15-7.86m18.74-111.1c-.61.4-4.21 3.14-5.72 4.3m7.27-2.96c-.68.1-2.66 1.73-6.2 4.47m6.31-2.24c-1.11.5-3.24 2.56-5.19 3.93m-3.68-4.32c-.53.4-1.58 1.55-2.08 1.94m52.33 239.71c-.32-.36-.32-1.62.26-3.03m2.34 2.38c-.4-.4 0-2.12.4-3.24m2.05 2.38c-.47-.22-.61-1.23.07-2.6m1.88 1.59c-.33-.11-.47-.65.1-2.24"/></g><path stroke="none" d="M913.97 199.57c1.04 1.37 2.13 1.22 2.32 2.1s.33.95.53 1.21-.5.21-.84.07-1.18-.12-1.7-.12c-.51.01-1.13-.6-.74-.67s.33-.19.27-.46.22-.7.37-.77c.17-.08.05-.06-.1-.42-.14-.36-.33-1.24-.11-.94m.63-1.26c1.17.14 3.2.77 4.29 1.99.86.95.16.7-.28.73a2.4 2.4 0 0 1-1.72-.81 6 6 0 0 0-2.38-1.41c-.4-.1-.8-.6.1-.5"/></g></svg>